STARTFONT 2.1
FONT -MIT-S16ROT KST-Medium-R-Normal--16-5-200-200-P-25-ISO8859-1
SIZE 5 200 200
FONTBOUNDINGBOX 25 16 -17 0
STARTPROPERTIES 17
ADD_STYLE_NAME ""
AVERAGE_WIDTH 25
CHARSET_ENCODING "1"
CHARSET_REGISTRY "ISO8859"
DEFAULT_CHAR 0
FAMILY "S16ROT KST"
FONT_ASCENT 16
FONT_DESCENT 0
FOUNDRY "MIT"
PIXEL_SIZE 16
POINT_SIZE 5
RESOLUTION_X 200
RESOLUTION_Y 200
SETWIDTH_NAME "Normal"
SLANT "R"
SPACING "P"
WEIGHT_NAME "Medium"
ENDPROPERTIES
CHARS 122
STARTCHAR char1
ENCODING 1
SWIDTH 5000 0
DWIDTH 25 0
BBX 20 16 5 0
BITMAP
000000
01C000
078000
0F0000
3C0000
700000
FFFFF0
FFFFF0
700000
3C0000
0F0000
078000
01C000
000000
000000
000000
ENDCHAR
STARTCHAR char2
ENCODING 2
SWIDTH 5000 0
DWIDTH 25 0
BBX 13 16 5 0
BITMAP
0F80
3FE0
6030
C018
C018
C018
C018
6030
3060
1FC0
3FE0
7070
4010
C018
0000
0000
ENDCHAR
STARTCHAR char3
ENCODING 3
SWIDTH 5000 0
DWIDTH 25 0
BBX 25 16 0 0
BITMAP
FFF80000
FFFF8000
03FFE000
03007800
07001C00
06000E00
06000700
06020300
06070380
06078380
070CE780
03FC7F00
01F81E00
00F00000
00000000
00000000
ENDCHAR
STARTCHAR char4
ENCODING 4
SWIDTH 5000 0
DWIDTH 25 0
BBX 13 16 5 0
BITMAP
E000
7800
1E00
0780
01E0
0070
0018
0018
0070
01E0
0780
1E00
7800
E000
0000
0000
ENDCHAR
STARTCHAR char5
ENCODING 5
SWIDTH 5000 0
DWIDTH 25 0
BBX 6 16 9 0
BITMAP
0C
0C
0C
0C
0C
0C
0C
0C
0C
0C
0C
0C
FC
FC
00
00
ENDCHAR
STARTCHAR char6
ENCODING 6
SWIDTH 5000 0
DWIDTH 25 0
BBX 13 16 5 0
BITMAP
0000
0000
0F80
3FE0
7270
6230
C218
C218
8208
8008
8008
0000
0000
0000
0000
0000
ENDCHAR
STARTCHAR char7
ENCODING 7
SWIDTH 5000 0
DWIDTH 25 0
BBX 13 16 5 0
BITMAP
8018
8018
FFF8
FFF8
0018
0018
0018
0018
0018
FFF8
FFF0
8030
8030
8020
0000
0000
ENDCHAR
STARTCHAR char8
ENCODING 8
SWIDTH 5000 0
DWIDTH 25 0
BBX 18 16 5 0
BITMAP
E00040
300040
180040
0C00C0
0600C0
030380
018F00
00FC00
00F000
03C000
0F0000
3C0000
F00000
C00000
000000
000000
ENDCHAR
STARTCHAR char14
ENCODING 14
SWIDTH 5000 0
DWIDTH 25 0
BBX 9 16 7 0
BITMAP
3E00
7F00
C180
C180
C180
6300
3E00
3E00
6300
C180
C180
C180
7F00
3E00
0000
0000
ENDCHAR
STARTCHAR char15
ENCODING 15
SWIDTH 5000 0
DWIDTH 25 0
BBX 20 16 5 0
BITMAP
000000
1F0000
7F8000
60C000
C06060
C06070
C06030
C06030
E06030
604020
30C060
1FFFC0
0FFF80
000000
000000
000000
ENDCHAR
STARTCHAR char16
ENCODING 16
SWIDTH 5000 0
DWIDTH 25 0
BBX 13 16 5 0
BITMAP
0F80
1FC0
38E0
7070
6030
C018
C018
C018
C018
C018
C018
C018
C018
C018
0000
0000
ENDCHAR
STARTCHAR char17
ENCODING 17
SWIDTH 5000 0
DWIDTH 25 0
BBX 13 16 5 0
BITMAP
C018
C018
C018
C018
C018
C018
C018
C018
C018
6030
7070
38E0
1FC0
0F80
0000
0000
ENDCHAR
STARTCHAR char18
ENCODING 18
SWIDTH 5000 0
DWIDTH 25 0
BBX 17 16 5 0
BITMAP
000000
FFFC00
FFFE00
000700
000300
000180
000180
000180
000300
000700
FFFE00
FFFC00
000000
000000
000000
000000
ENDCHAR
STARTCHAR char19
ENCODING 19
SWIDTH 5000 0
DWIDTH 25 0
BBX 17 16 5 0
BITMAP
000000
1FFF80
3FFF80
700000
600000
C00000
C00000
C00000
600000
700000
3FFF80
1FFF80
000000
000000
000000
000000
ENDCHAR
STARTCHAR char20
ENCODING 20
SWIDTH 5000 0
DWIDTH 25 0
BBX 20 16 5 0
BITMAP
000030
0001F0
000FC0
007E00
03F800
1F9800
FC1800
FC1800
1F9800
03F800
007E00
000FC0
0001F0
000030
000000
000000
ENDCHAR
STARTCHAR char21
ENCODING 21
SWIDTH 5000 0
DWIDTH 25 0
BBX 20 16 5 0
BITMAP
C00030
C00030
C00030
C00030
C00030
C06030
C06030
C06030
C06030
C06030
C06030
FFFFF0
FFFFF0
800010
000000
000000
ENDCHAR
STARTCHAR char22
ENCODING 22
SWIDTH 5000 0
DWIDTH 25 0
BBX 13 16 5 0
BITMAP
0700
1FC0
3060
7070
58D0
CD98
C718
C718
CD98
58D0
7070
3060
1FC0
0700
0000
0000
ENDCHAR
STARTCHAR char23
ENCODING 23
SWIDTH 5000 0
DWIDTH 25 0
BBX 10 16 7 0
BITMAP
0C00
1E00
3F00
7380
D2C0
1200
1200
1200
1200
D2C0
7380
3F00
1E00
0C00
0000
0000
ENDCHAR
STARTCHAR char24
ENCODING 24
SWIDTH 5000 0
DWIDTH 25 0
BBX 2 16 1 0
BITMAP
C0
C0
C0
C0
C0
C0
C0
C0
C0
C0
C0
C0
C0
C0
C0
C0
ENDCHAR
STARTCHAR char25
ENCODING 25
SWIDTH 5000 0
DWIDTH 25 0
BBX 10 16 7 0
BITMAP
0C00
0C00
0C00
0C00
0C00
0C00
0C00
0C00
8C40
CCC0
6D80
3F00
1E00
0C00
0000
0000
ENDCHAR
STARTCHAR char26
ENCODING 26
SWIDTH 5000 0
DWIDTH 25 0
BBX 7 16 8 0
BITMAP
E0
38
1C
0E
0E
1E
3C
78
F0
E0
E0
70
38
0E
00
00
ENDCHAR
STARTCHAR char27
ENCODING 27
SWIDTH 5000 0
DWIDTH 25 0
BBX 12 16 6 0
BITMAP
0000
9980
D980
7980
3980
1980
1D80
1F80
1B80
19C0
19E0
19B0
1990
0000
0000
0000
ENDCHAR
STARTCHAR char28
ENCODING 28
SWIDTH 5000 0
DWIDTH 25 0
BBX 16 16 5 0
BITMAP
0000
C060
C060
C0F0
C0F0
C198
C198
C30C
C30C
C606
C606
CC03
CC03
0000
0000
0000
ENDCHAR
STARTCHAR char29
ENCODING 29
SWIDTH 5000 0
DWIDTH 25 0
BBX 16 16 5 0
BITMAP
0000
CC03
CC03
C606
C606
C30C
C30C
C198
C198
C0F0
C0F0
C060
C060
0000
0000
0000
ENDCHAR
STARTCHAR char30
ENCODING 30
SWIDTH 5000 0
DWIDTH 25 0
BBX 10 16 7 0
BITMAP
0000
CCC0
CCC0
CCC0
CCC0
CCC0
CCC0
CCC0
CCC0
CCC0
CCC0
CCC0
CCC0
0000
0000
0000
ENDCHAR
STARTCHAR char31
ENCODING 31
SWIDTH 5000 0
DWIDTH 25 0
BBX 13 16 5 0
BITMAP
0038
00F0
03C0
0F00
3C00
7000
C000
C000
7000
3C00
0F00
03C0
00F0
0038
0000
0000
ENDCHAR
STARTCHAR char32
ENCODING 32
SWIDTH 5000 0
DWIDTH 25 0
BBX 1 16 0 0
BITMAP
00
00
00
00
00
00
00
00
00
00
00
00
00
00
00
00
ENDCHAR
STARTCHAR char33
ENCODING 33
SWIDTH 5000 0
DWIDTH 25 0
BBX 20 16 5 0
BITMAP
000000
000000
000000
000000
000000
000000
E3FFF0
E3FFF0
E3FFF0
000000
000000
000000
000000
000000
000000
000000
ENDCHAR
STARTCHAR char34
ENCODING 34
SWIDTH 5000 0
DWIDTH 25 0
BBX 8 16 17 0
BITMAP
00
00
00
FF
FF
00
00
00
FF
FF
00
00
00
00
00
00
ENDCHAR
STARTCHAR char35
ENCODING 35
SWIDTH 5000 0
DWIDTH 25 0
BBX 20 16 5 0
BITMAP
E60000
FE0600
1FC600
07FE00
063F80
0607F0
060670
E60600
FE0600
1FC600
07FE00
063F80
0607F0
000670
000000
000000
ENDCHAR
STARTCHAR char36
ENCODING 36
SWIDTH 5000 0
DWIDTH 25 0
BBX 20 16 5 0
BITMAP
000000
0C0F00
1C1F80
3839C0
FFFFF0
FFFFF0
3060C0
3060C0
FFFFF0
FFFFF0
39C1C0
1F8380
0F0300
000000
000000
000000
ENDCHAR
STARTCHAR char37
ENCODING 37
SWIDTH 5000 0
DWIDTH 25 0
BBX 20 16 5 0
BITMAP
000380
0007C0
C00C60
F00C60
3C0C60
0F07C0
03C380
38F000
7C3C00
C60F00
C603C0
C600F0
7C0030
380000
000000
000000
ENDCHAR
STARTCHAR char38
ENCODING 38
SWIDTH 5000 0
DWIDTH 25 0
BBX 20 16 5 0
BITMAP
0F8000
3FC000
7FE000
707380
E037E0
C03E60
C07C30
C1F810
E7CC30
7F8670
3E07E0
3801C0
7F0000
670000
000000
000000
ENDCHAR
STARTCHAR char39
ENCODING 39
SWIDTH 5000 0
DWIDTH 25 0
BBX 8 16 17 0
BITMAP
00
00
00
06
CF
7F
3F
1E
00
00
00
00
00
00
00
00
ENDCHAR
STARTCHAR char40
ENCODING 40
SWIDTH 5000 0
DWIDTH 25 0
BBX 20 16 5 0
BITMAP
000000
000000
000000
000000
000000
000000
01F800
1FFF80
7FFFE0
E00070
C00030
800010
000000
000000
000000
000000
ENDCHAR
STARTCHAR char41
ENCODING 41
SWIDTH 5000 0
DWIDTH 25 0
BBX 20 16 5 0
BITMAP
000000
000000
800010
C00030
E00070
7FFFE0
1FFF80
01F800
000000
000000
000000
000000
000000
000000
000000
000000
ENDCHAR
STARTCHAR char42
ENCODING 42
SWIDTH 5000 0
DWIDTH 25 0
BBX 14 16 5 0
BITMAP
01C0
01C0
E1C0
F300
FB00
181C
007C
007C
181C
FB00
F300
E1C0
01C0
01C0
0000
0000
ENDCHAR
STARTCHAR char43
ENCODING 43
SWIDTH 5000 0
DWIDTH 25 0
BBX 14 16 5 0
BITMAP
0300
0300
0300
0300
0300
0300
FFFC
FFFC
0300
0300
0300
0300
0300
0300
0000
0000
ENDCHAR
STARTCHAR char44
ENCODING 44
SWIDTH 5000 0
DWIDTH 25 0
BBX 8 16 1 0
BITMAP
00
00
00
06
CF
7F
3F
1E
00
00
00
00
00
00
00
00
ENDCHAR
STARTCHAR char45
ENCODING 45
SWIDTH 5000 0
DWIDTH 25 0
BBX 2 16 11 0
BITMAP
00
C0
C0
C0
C0
C0
C0
C0
C0
C0
C0
C0
C0
00
00
00
ENDCHAR
STARTCHAR char46
ENCODING 46
SWIDTH 5000 0
DWIDTH 25 0
BBX 5 16 5 0
BITMAP
00
00
00
70
F8
F8
F8
70
00
00
00
00
00
00
00
00
ENDCHAR
STARTCHAR char47
ENCODING 47
SWIDTH 5000 0
DWIDTH 25 0
BBX 20 16 5 0
BITMAP
000000
C00000
F00000
7C0000
1F0000
07C000
01F000
007C00
001F00
0007C0
0001F0
000070
000010
000000
000000
000000
ENDCHAR
STARTCHAR char48
ENCODING 48
SWIDTH 5000 0
DWIDTH 25 0
BBX 20 16 5 0
BITMAP
180000
3FFFC0
7FFFE0
FF00F0
E38070
C1C030
C0E030
C07030
C03830
E01C70
F00FF0
7FFFE0
3FFFC0
000180
000000
000000
ENDCHAR
STARTCHAR char49
ENCODING 49
SWIDTH 5000 0
DWIDTH 25 0
BBX 20 16 5 0
BITMAP
000000
C00080
C000C0
C00060
C00030
FFFFF0
FFFFF0
C00000
C00000
C00000
C00000
000000
000000
000000
000000
000000
ENDCHAR
STARTCHAR char50
ENCODING 50
SWIDTH 5000 0
DWIDTH 25 0
BBX 20 16 5 0
BITMAP
E00180
F001E0
D80060
CC0030
C60030
C30030
C18030
C0C030
C06030
C03030
C01860
C00FE0
C00780
000000
000000
000000
ENDCHAR
STARTCHAR char51
ENCODING 51
SWIDTH 5000 0
DWIDTH 25 0
BBX 20 16 5 0
BITMAP
180180
7801E0
600060
C00030
C00030
C06030
C06030
C06030
C06030
C0F030
639C60
7F0FE0
1C0380
000000
000000
000000
ENDCHAR
STARTCHAR char52
ENCODING 52
SWIDTH 5000 0
DWIDTH 25 0
BBX 20 16 5 0
BITMAP
078000
07E000
067800
061E00
060780
0601E0
060070
060030
FFF800
FFF800
060000
060000
060000
000000
000000
000000
ENDCHAR
STARTCHAR char53
ENCODING 53
SWIDTH 5000 0
DWIDTH 25 0
BBX 20 16 5 0
BITMAP
187FF0
787FF0
606030
C06030
C06030
C06030
C06030
C06030
C06030
C06030
60C030
7FC030
1F0000
000000
000000
000000
ENDCHAR
STARTCHAR char54
ENCODING 54
SWIDTH 5000 0
DWIDTH 25 0
BBX 20 16 5 0
BITMAP
1FFF80
7FFFE0
618060
C0C030
C0C030
C06030
C06030
C06030
C0C030
C0C030
618060
7F81E0
1E0180
000000
000000
000000
ENDCHAR
STARTCHAR char55
ENCODING 55
SWIDTH 5000 0
DWIDTH 25 0
BBX 20 16 5 0
BITMAP
000030
000030
000030
E00030
F80030
1E0030
078030
01E030
007830
001E30
0007F0
0001F0
000070
000000
000000
000000
ENDCHAR
STARTCHAR char56
ENCODING 56
SWIDTH 5000 0
DWIDTH 25 0
BBX 20 16 5 0
BITMAP
1E0000
7F8380
618FE0
C0CC60
C0D830
C07830
C07030
C07830
C0D830
C0CC60
618FE0
7F8380
1E0000
000000
000000
000000
ENDCHAR
STARTCHAR char57
ENCODING 57
SWIDTH 5000 0
DWIDTH 25 0
BBX 20 16 5 0
BITMAP
180780
781FE0
601860
C03030
C03030
C06030
C06030
C06030
C03030
C03030
601860
7FFFE0
1FFF80
000000
000000
000000
ENDCHAR
STARTCHAR char58
ENCODING 58
SWIDTH 5000 0
DWIDTH 25 0
BBX 13 16 5 0
BITMAP
0000
0000
0000
7070
F8F8
F8F8
F8F8
7070
0000
0000
0000
0000
0000
0000
0000
0000
ENDCHAR
STARTCHAR char59
ENCODING 59
SWIDTH 5000 0
DWIDTH 25 0
BBX 16 16 1 0
BITMAP
0000
0000
0000
060E
CF1F
7F1F
3F1F
1E0E
0000
0000
0000
0000
0000
0000
0000
0000
ENDCHAR
STARTCHAR char60
ENCODING 60
SWIDTH 5000 0
DWIDTH 25 0
BBX 12 16 6 0
BITMAP
0000
0600
0600
0F00
0F00
1980
1980
30C0
30C0
6060
6060
C030
C030
0000
0000
0000
ENDCHAR
STARTCHAR char61
ENCODING 61
SWIDTH 5000 0
DWIDTH 25 0
BBX 6 16 9 0
BITMAP
00
CC
CC
CC
CC
CC
CC
CC
CC
CC
CC
CC
CC
00
00
00
ENDCHAR
STARTCHAR char62
ENCODING 62
SWIDTH 5000 0
DWIDTH 25 0
BBX 12 16 6 0
BITMAP
0000
C030
C030
6060
6060
30C0
30C0
1980
1980
0F00
0F00
0600
0600
0000
0000
0000
ENDCHAR
STARTCHAR char63
ENCODING 63
SWIDTH 5000 0
DWIDTH 25 0
BBX 20 16 5 0
BITMAP
000000
000180
0001C0
0000E0
000070
E70030
E78030
E1C030
00E030
007070
0038E0
001FC0
000F80
000000
000000
000000
ENDCHAR
STARTCHAR char64
ENCODING 64
SWIDTH 5000 0
DWIDTH 25 0
BBX 14 16 5 0
BITMAP
1FE0
3FF0
7018
6008
C78C
CFCC
CCCC
CCCC
CCCC
CF8C
CF98
6C38
67F0
23E0
0000
0000
ENDCHAR
STARTCHAR char65
ENCODING 65
SWIDTH 5000 0
DWIDTH 25 0
BBX 20 16 5 0
BITMAP
F00000
FF0000
1FE000
03FC00
031F80
0303E0
0300F0
0303E0
031F80
03FC00
1FE000
FF0000
F00000
000000
000000
000000
ENDCHAR
STARTCHAR char66
ENCODING 66
SWIDTH 5000 0
DWIDTH 25 0
BBX 20 16 5 0
BITMAP
FFFFF0
FFFFF0
C06030
C06030
C06030
C06030
C06030
C06030
C06030
C07060
60FFE0
7FCF80
1F0000
000000
000000
000000
ENDCHAR
STARTCHAR char67
ENCODING 67
SWIDTH 5000 0
DWIDTH 25 0
BBX 20 16 5 0
BITMAP
1FFF80
7FFFE0
600060
C00030
C00030
C00030
C00030
C00030
C00030
C00030
600060
7801E0
180180
000000
000000
000000
ENDCHAR
STARTCHAR char68
ENCODING 68
SWIDTH 5000 0
DWIDTH 25 0
BBX 20 16 5 0
BITMAP
FFFFF0
FFFFF0
C00030
C00030
C00030
C00030
C00030
C00030
C00030
C00030
600060
7FFFE0
1FFF80
000000
000000
000000
ENDCHAR
STARTCHAR char69
ENCODING 69
SWIDTH 5000 0
DWIDTH 25 0
BBX 20 16 5 0
BITMAP
FFFFF0
FFFFF0
C06030
C06030
C06030
C06030
C06030
C06030
C06030
C06030
C06030
C00030
C00030
000000
000000
000000
ENDCHAR
STARTCHAR char70
ENCODING 70
SWIDTH 5000 0
DWIDTH 25 0
BBX 20 16 5 0
BITMAP
FFFFF0
FFFFF0
006030
006030
006030
006030
006030
006030
006030
006030
006030
000030
000030
000000
000000
000000
ENDCHAR
STARTCHAR char71
ENCODING 71
SWIDTH 5000 0
DWIDTH 25 0
BBX 20 16 5 0
BITMAP
1FFF80
7FFFE0
600060
C00030
C00030
C00030
C00030
C00030
C18030
C18030
618060
7F81E0
1F8180
000000
000000
000000
ENDCHAR
STARTCHAR char72
ENCODING 72
SWIDTH 5000 0
DWIDTH 25 0
BBX 20 16 5 0
BITMAP
FFFFF0
FFFFF0
006000
006000
006000
006000
006000
006000
006000
006000
006000
FFFFF0
FFFFF0
000000
000000
000000
ENDCHAR
STARTCHAR char73
ENCODING 73
SWIDTH 5000 0
DWIDTH 25 0
BBX 20 16 5 0
BITMAP
000000
000000
000000
C00030
C00030
FFFFF0
FFFFF0
C00030
C00030
000000
000000
000000
000000
000000
000000
000000
ENDCHAR
STARTCHAR char74
ENCODING 74
SWIDTH 5000 0
DWIDTH 25 0
BBX 20 16 5 0
BITMAP
180000
780000
600000
C00000
C00000
C00000
C00000
C00000
C00000
C00000
600000
7FFFF0
1FFFF0
000000
000000
000000
ENDCHAR
STARTCHAR char75
ENCODING 75
SWIDTH 5000 0
DWIDTH 25 0
BBX 20 16 5 0
BITMAP
FFFFF0
FFFFF0
00E000
01F000
03B800
071C00
0E0E00
1C0700
380380
7001C0
E000E0
C00070
000030
000000
000000
000000
ENDCHAR
STARTCHAR char76
ENCODING 76
SWIDTH 5000 0
DWIDTH 25 0
BBX 20 16 5 0
BITMAP
FFFFF0
FFFFF0
C00000
C00000
C00000
C00000
C00000
C00000
C00000
C00000
C00000
C00000
C00000
000000
000000
000000
ENDCHAR
STARTCHAR char77
ENCODING 77
SWIDTH 5000 0
DWIDTH 25 0
BBX 20 16 5 0
BITMAP
FFFFF0
FFFFF0
0000E0
0001C0
000380
000700
001C00
000700
000380
0001C0
0000E0
FFFFF0
FFFFF0
000000
000000
000000
ENDCHAR
STARTCHAR char78
ENCODING 78
SWIDTH 5000 0
DWIDTH 25 0
BBX 20 16 5 0
BITMAP
FFFFF0
FFFFF0
0000F0
0003C0
000F00
003C00
00F000
03C000
0F0000
3C0000
F00000
FFFFF0
FFFFF0
000000
000000
000000
ENDCHAR
STARTCHAR char79
ENCODING 79
SWIDTH 5000 0
DWIDTH 25 0
BBX 20 16 5 0
BITMAP
1FFF80
7FFFE0
600060
C00030
C00030
C00030
C00030
C00030
C00030
C00030
600060
7FFFE0
1FFF80
000000
000000
000000
ENDCHAR
STARTCHAR char80
ENCODING 80
SWIDTH 5000 0
DWIDTH 25 0
BBX 20 16 5 0
BITMAP
FFFFF0
FFFFF0
006030
006030
006030
006030
006030
006030
006030
006030
003060
003FE0
000F80
000000
000000
000000
ENDCHAR
STARTCHAR char81
ENCODING 81
SWIDTH 5000 0
DWIDTH 25 0
BBX 21 16 4 0
BITMAP
0FFFC0
3FFFF0
300030
600018
600018
600018
600018
600018
6C0018
7C0018
380030
7FFFF0
EFFFC0
C00000
000000
000000
ENDCHAR
STARTCHAR char82
ENCODING 82
SWIDTH 5000 0
DWIDTH 25 0
BBX 20 16 5 0
BITMAP
FFFFF0
FFFFF0
006030
006030
006030
006030
006030
006030
006030
01E030
3FB060
FE3FE0
C00F80
000000
000000
000000
ENDCHAR
STARTCHAR char83
ENCODING 83
SWIDTH 5000 0
DWIDTH 25 0
BBX 20 16 5 0
BITMAP
180F80
783FE0
603060
C06030
C06030
C06030
C06030
C06030
C06030
C06030
60E060
7FC1E0
1F0180
000000
000000
000000
ENDCHAR
STARTCHAR char84
ENCODING 84
SWIDTH 5000 0
DWIDTH 25 0
BBX 20 16 5 0
BITMAP
000000
000030
000030
000030
000030
000030
FFFFF0
FFFFF0
000030
000030
000030
000030
000030
000000
000000
000000
ENDCHAR
STARTCHAR char85
ENCODING 85
SWIDTH 5000 0
DWIDTH 25 0
BBX 20 16 5 0
BITMAP
1FFFF0
7FFFF0
600000
C00000
C00000
C00000
C00000
C00000
C00000
C00000
600000
7FFFF0
1FFFF0
000000
000000
000000
ENDCHAR
STARTCHAR char86
ENCODING 86
SWIDTH 5000 0
DWIDTH 25 0
BBX 20 16 5 0
BITMAP
000030
0001F0
000FC0
007E00
03F000
1F8000
FC0000
1F8000
03F000
007E00
000FC0
0001F0
000030
000000
000000
000000
ENDCHAR
STARTCHAR char87
ENCODING 87
SWIDTH 5000 0
DWIDTH 25 0
BBX 20 16 5 0
BITMAP
FFFFF0
FFFFF0
700000
380000
1C0000
0E0000
078000
0E0000
1C0000
380000
700000
FFFFF0
FFFFF0
000000
000000
000000
ENDCHAR
STARTCHAR char88
ENCODING 88
SWIDTH 5000 0
DWIDTH 25 0
BBX 20 16 5 0
BITMAP
C00030
F000F0
3C03C0
0F0F00
03FC00
00F000
006000
00F000
03FC00
0F0F00
3C03C0
F000F0
C00030
000000
000000
000000
ENDCHAR
STARTCHAR char89
ENCODING 89
SWIDTH 5000 0
DWIDTH 25 0
BBX 20 16 5 0
BITMAP
000000
0000F0
0003C0
000F00
003C00
007000
FFE000
FFE000
007000
003C00
000F00
0003C0
0000F0
000000
000000
000000
ENDCHAR
STARTCHAR char90
ENCODING 90
SWIDTH 5000 0
DWIDTH 25 0
BBX 20 16 5 0
BITMAP
E00030
F00030
FC0030
CE0030
C78030
C1C030
C0F030
C03830
C01E30
C00730
C003F0
C000F0
C00070
000000
000000
000000
ENDCHAR
STARTCHAR char91
ENCODING 91
SWIDTH 5000 0
DWIDTH 25 0
BBX 20 16 5 0
BITMAP
000000
000000
000000
000000
000000
000000
000000
FFFFF0
FFFFF0
C00030
C00030
C00030
C00030
000000
000000
000000
ENDCHAR
STARTCHAR char92
ENCODING 92
SWIDTH 5000 0
DWIDTH 25 0
BBX 20 16 5 0
BITMAP
000000
000010
000070
0001F0
0007C0
001F00
007C00
01F000
07C000
1F0000
7C0000
F00000
C00000
000000
000000
000000
ENDCHAR
STARTCHAR char93
ENCODING 93
SWIDTH 5000 0
DWIDTH 25 0
BBX 20 16 5 0
BITMAP
000000
C00030
C00030
C00030
C00030
FFFFF0
FFFFF0
000000
000000
000000
000000
000000
000000
000000
000000
000000
ENDCHAR
STARTCHAR char94
ENCODING 94
SWIDTH 5000 0
DWIDTH 25 0
BBX 20 16 5 0
BITMAP
000000
003800
001E00
000F00
0003C0
0000E0
FFFFF0
FFFFF0
0000E0
0003C0
000F00
001E00
003800
000000
000000
000000
ENDCHAR
STARTCHAR char95
ENCODING 95
SWIDTH 5000 0
DWIDTH 25 0
BBX 10 16 7 0
BITMAP
0C00
1E00
3F00
6D80
CCC0
8C40
0C00
0C00
0C00
0C00
0C00
0C00
0C00
0C00
0000
0000
ENDCHAR
STARTCHAR char96
ENCODING 96
SWIDTH 5000 0
DWIDTH 25 0
BBX 8 16 17 0
BITMAP
00
00
00
00
00
00
78
FC
FE
F3
60
00
00
00
00
00
ENDCHAR
STARTCHAR char97
ENCODING 97
SWIDTH 5000 0
DWIDTH 25 0
BBX 14 16 5 0
BITMAP
0000
3C00
7E30
C638
C20C
C30C
C30C
C30C
C30C
618C
318C
FFF8
FFF0
0000
0000
0000
ENDCHAR
STARTCHAR char98
ENCODING 98
SWIDTH 5000 0
DWIDTH 25 0
BBX 18 16 5 0
BITMAP
000000
FFFFC0
FFFFC0
306000
603000
401000
C01800
C01800
C01800
C01800
603000
7FF000
1FC000
000000
000000
000000
ENDCHAR
STARTCHAR char99
ENCODING 99
SWIDTH 5000 0
DWIDTH 25 0
BBX 13 16 5 0
BITMAP
0000
1FC0
7FF0
6030
C018
C018
C018
C018
C018
C018
C018
7070
3060
0000
0000
0000
ENDCHAR
STARTCHAR char100
ENCODING 100
SWIDTH 5000 0
DWIDTH 25 0
BBX 18 16 5 0
BITMAP
000000
1FC000
7FF000
603000
C01800
C01800
C01800
C01800
401000
603000
306000
FFFFC0
FFFFC0
000000
000000
000000
ENDCHAR
STARTCHAR char101
ENCODING 101
SWIDTH 5000 0
DWIDTH 25 0
BBX 13 16 5 0
BITMAP
0000
1FC0
7FF0
6330
C318
C318
C318
C318
C318
C318
C330
73F0
33C0
0000
0000
0000
ENDCHAR
STARTCHAR char102
ENCODING 102
SWIDTH 5000 0
DWIDTH 25 0
BBX 18 16 5 0
BITMAP
000000
000000
000000
003000
003000
003000
FFFF00
FFFF80
0030C0
0030C0
0030C0
0030C0
000000
000000
000000
000000
ENDCHAR
STARTCHAR char103
ENCODING 103
SWIDTH 5000 0
DWIDTH 25 0
BBX 18 16 0 0
BITMAP
000000
00FE00
63FF80
E30180
C600C0
C600C0
C600C0
C600C0
C20080
C30180
618300
7FFFC0
1FFFC0
000000
000000
000000
ENDCHAR
STARTCHAR char104
ENCODING 104
SWIDTH 5000 0
DWIDTH 25 0
BBX 18 16 5 0
BITMAP
000000
FFFFC0
FFFFC0
006000
003000
003000
001800
001800
001800
001800
003000
FFF000
FFC000
000000
000000
000000
ENDCHAR
STARTCHAR char105
ENCODING 105
SWIDTH 5000 0
DWIDTH 25 0
BBX 19 16 5 0
BITMAP
000000
000000
000000
000000
000000
0000E0
FFF8E0
FFF8E0
000000
000000
000000
000000
000000
000000
000000
000000
ENDCHAR
STARTCHAR char106
ENCODING 106
SWIDTH 5000 0
DWIDTH 25 0
BBX 23 16 0 0
BITMAP
000000
000000
000000
000000
C00000
C00000
C00000
C0000E
7FFF8E
3FFF8E
000000
000000
000000
000000
000000
000000
ENDCHAR
STARTCHAR char107
ENCODING 107
SWIDTH 5000 0
DWIDTH 25 0
BBX 18 16 5 0
BITMAP
000000
FFFFC0
FFFFC0
070000
038000
03C000
07E000
0E7000
1C3800
381800
700800
E00000
C00000
000000
000000
000000
ENDCHAR
STARTCHAR char108
ENCODING 108
SWIDTH 5000 0
DWIDTH 25 0
BBX 19 16 5 0
BITMAP
000000
000000
000000
000000
000000
000000
FFFFE0
FFFFE0
000000
000000
000000
000000
000000
000000
000000
000000
ENDCHAR
STARTCHAR char109
ENCODING 109
SWIDTH 5000 0
DWIDTH 25 0
BBX 14 16 5 0
BITMAP
0000
FFFC
FFFC
0010
0018
0018
FFF8
FFE0
0010
0018
0018
FFF8
FFF0
0000
0000
0000
ENDCHAR
STARTCHAR char110
ENCODING 110
SWIDTH 5000 0
DWIDTH 25 0
BBX 13 16 5 0
BITMAP
0000
FFF8
FFF8
0060
0030
0018
0018
0018
0018
0018
0038
FFF0
FFE0
0000
0000
0000
ENDCHAR
STARTCHAR char111
ENCODING 111
SWIDTH 5000 0
DWIDTH 25 0
BBX 13 16 5 0
BITMAP
0000
1FC0
7FF0
6030
C018
C018
C018
C018
C018
C018
6030
7FF0
1FC0
0000
0000
0000
ENDCHAR
STARTCHAR char112
ENCODING 112
SWIDTH 5000 0
DWIDTH 25 0
BBX 19 16 0 0
BITMAP
000000
FFFFE0
FFFFE0
018300
030180
020080
0600C0
0600C0
0600C0
0600C0
030180
03FF80
00FE00
000000
000000
000000
ENDCHAR
STARTCHAR char113
ENCODING 113
SWIDTH 5000 0
DWIDTH 25 0
BBX 18 16 0 0
BITMAP
000000
00FE00
03FF80
030180
0600C0
0600C0
0600C0
0600C0
020080
030180
018300
FFFFC0
FFFFC0
000000
000000
000000
ENDCHAR
STARTCHAR char114
ENCODING 114
SWIDTH 5000 0
DWIDTH 25 0
BBX 13 16 5 0
BITMAP
0000
FFF8
FFF8
0060
0030
0030
0018
0018
0018
0030
0070
0060
0000
0000
0000
0000
ENDCHAR
STARTCHAR char115
ENCODING 115
SWIDTH 5000 0
DWIDTH 25 0
BBX 13 16 5 0
BITMAP
0000
0000
31E0
73F0
C318
C318
C318
C318
C318
C318
C318
7E70
3C60
0000
0000
0000
ENDCHAR
STARTCHAR char116
ENCODING 116
SWIDTH 5000 0
DWIDTH 25 0
BBX 18 16 5 0
BITMAP
000000
000000
000000
001800
001800
001800
3FFFC0
7FFFC0
C01800
C01800
C01800
C01800
000000
000000
000000
000000
ENDCHAR
STARTCHAR char117
ENCODING 117
SWIDTH 5000 0
DWIDTH 25 0
BBX 13 16 5 0
BITMAP
0000
1FF8
7FF8
6000
C000
C000
C000
C000
6000
6000
3000
FFF8
FFF8
0000
0000
0000
ENDCHAR
STARTCHAR char118
ENCODING 118
SWIDTH 5000 0
DWIDTH 25 0
BBX 13 16 5 0
BITMAP
0000
0038
00F8
03E0
0F80
3E00
F800
F800
3E00
0F80
03E0
00F8
0038
0000
0000
0000
ENDCHAR
STARTCHAR char119
ENCODING 119
SWIDTH 5000 0
DWIDTH 25 0
BBX 13 16 5 0
BITMAP
0000
FFF8
FFF8
6000
3000
1800
0C00
0C00
1800
3000
6000
FFF8
FFF8
0000
0000
0000
ENDCHAR
STARTCHAR char120
ENCODING 120
SWIDTH 5000 0
DWIDTH 25 0
BBX 13 16 5 0
BITMAP
0000
E038
7070
38E0
1DC0
0F80
0700
0700
0F80
1DC0
38E0
7070
E038
0000
0000
0000
ENDCHAR
STARTCHAR char121
ENCODING 121
SWIDTH 5000 0
DWIDTH 25 0
BBX 18 16 0 0
BITMAP
000000
00FFC0
63FFC0
E30000
C60000
C60000
C60000
C60000
C30000
C30000
618000
7FFFC0
1FFFC0
000000
000000
000000
ENDCHAR
STARTCHAR char122
ENCODING 122
SWIDTH 5000 0
DWIDTH 25 0
BBX 13 16 5 0
BITMAP
0000
C018
E018
F018
D818
CC18
C618
C318
C198
C0D8
C078
C038
C018
0000
0000
0000
ENDCHAR
STARTCHAR char123
ENCODING 123
SWIDTH 5000 0
DWIDTH 25 0
BBX 20 16 5 0
BITMAP
000000
000000
000000
000000
000000
000000
000000
006000
30F0C0
7FFFE0
CF0F30
800010
800010
000000
000000
000000
ENDCHAR
STARTCHAR char124
ENCODING 124
SWIDTH 5000 0
DWIDTH 25 0
BBX 20 16 5 0
BITMAP
000000
000000
000000
000000
000000
000000
FFFFF0
FFFFF0
000000
000000
000000
000000
000000
000000
000000
000000
ENDCHAR
STARTCHAR char125
ENCODING 125
SWIDTH 5000 0
DWIDTH 25 0
BBX 20 16 5 0
BITMAP
000000
800010
800010
CF0F30
7FFFE0
30F0C0
006000
000000
000000
000000
000000
000000
000000
000000
000000
000000
ENDCHAR
STARTCHAR char126
ENCODING 126
SWIDTH 5000 0
DWIDTH 25 0
BBX 7 16 8 0
BITMAP
F0
38
1C
0E
0E
1E
3C
78
E0
E0
E0
70
38
1E
00
00
ENDCHAR
STARTCHAR char127
ENCODING 127
SWIDTH 5000 0
DWIDTH 25 0
BBX 1 16 0 0
BITMAP
00
00
00
00
00
00
00
00
00
00
00
00
00
00
00
00
ENDCHAR
ENDFONT
